<svg width="90" height="90" viewBox="0 0 90 90" fill="none" xmlns="http://www.w3.org/2000/svg">
<g clip-path="url(#clip0_1330_10129)">
<path fill-rule="evenodd" clip-rule="evenodd" d="M57.4648 0.2046L7.66498 3.88253C3.64799 4.23052 2.25 6.85547 2.25 10.0024L2.25 64.5953C2.25 67.0463 3.12 69.1433 5.21999 71.9452L16.9259 87.1669C18.8489 89.6179 20.5979 90.1428 24.2699 89.9688L82.1007 86.4679C86.9907 86.1199 88.3917 83.843 88.3917 79.994V18.5762C88.3917 16.5873 87.6057 16.0143 85.2927 14.3163C85.1596 14.2205 85.0266 14.1245 84.8937 14.0283L68.9998 2.82955C65.1538 0.033603 63.5818 -0.32039 57.4648 0.2046V0.2046ZM25.5779 17.5713C20.8559 17.8893 19.7849 17.9613 17.1029 15.7803L10.284 10.3564C9.59097 9.65442 9.93897 8.77843 11.685 8.60444L59.5588 5.1065C63.5788 4.75551 65.6728 6.15648 67.2448 7.38046L75.4557 13.3293C75.8067 13.5063 76.6797 14.5533 75.6297 14.5533L26.1899 17.5293L25.5779 17.5713V17.5713ZM20.0729 79.4691L20.0729 27.3301C20.0729 25.0531 20.7719 24.0031 22.8659 23.8261L79.6497 20.5022C81.5757 20.3282 82.4457 21.5522 82.4457 23.8261V75.6171C82.4457 77.8941 82.0947 79.82 78.9507 79.994L24.6119 83.144C21.4679 83.318 20.0729 82.271 20.0729 79.4691V79.4691ZM73.7127 30.126C74.0607 31.701 73.7127 33.276 72.1377 33.456L69.5188 33.9749V72.4702C67.2448 73.6942 65.1508 74.3932 63.4018 74.3932C60.6058 74.3932 59.9068 73.5172 57.8128 70.8952L40.6859 43.9497V70.0192L46.1038 71.2462C46.1038 71.2462 46.1038 74.3962 41.7329 74.3962L29.6819 75.0951C29.3309 74.3932 29.6819 72.6442 30.9029 72.2962L34.0499 71.4232V36.9539L29.6819 36.5999C29.3309 35.0249 30.2039 32.751 32.6519 32.574L45.5818 31.704L63.4018 58.9975V34.8509L58.8598 34.3289C58.5088 32.4 59.9068 30.999 61.6528 30.828L73.7127 30.126V30.126Z" fill="#E1DCE5" style="fill:#E1DCE5;fill:color(display-p3 0.8824 0.8627 0.8980);fill-opacity:1;"/>
</g>
<defs>
<clipPath id="clip0_1330_10129">
<rect width="90.0007" height="89.9993" fill="white" style="fill:white;fill-opacity:1;"/>
</clipPath>
</defs>
</svg>
