<svg width="85" height="90" viewBox="0 0 85 90" fill="none" xmlns="http://www.w3.org/2000/svg">
<g clip-path="url(#clip0_1330_9963)">
<path d="M65.326 24.2143C70.2149 24.2143 74.8913 26.1429 78.2924 29.1429C80.6306 31.0714 84.0316 29.5714 84.0316 26.3571V7.07143C84.0316 3.21429 81.0557 0 77.017 0L7.50873 0C3.68259 0 0.494141 3.21429 0.494141 7.07143L0.494141 83.1429C0.494141 86.7857 3.68259 90 7.50873 90H77.2295C81.0557 90 84.2441 86.7857 84.2441 82.9286V63.6429C84.2441 60.6429 80.8431 58.9286 78.5049 60.8571C74.8913 64.0714 70.4275 65.7857 65.5386 65.7857C54.2727 65.7857 45.1325 56.3571 45.1325 45C45.1325 33.6429 54.2727 24.2143 65.326 24.2143Z" fill="#EE5A29" style="fill:#EE5A29;fill:color(display-p3 0.9333 0.3529 0.1608);fill-opacity:1;"/>
</g>
<defs>
<clipPath id="clip0_1330_9963">
<rect width="83.75" height="90" fill="white" style="fill:white;fill-opacity:1;" transform="translate(0.492188)"/>
</clipPath>
</defs>
</svg>
