<svg width="91" height="90" viewBox="0 0 91 90" fill="none" xmlns="http://www.w3.org/2000/svg">
<g clip-path="url(#clip0_1330_9990)">
<path fill-rule="evenodd" clip-rule="evenodd" d="M3.29102 68.7049C2.36021 70.2847 1.31483 72.1178 0.426976 73.5783C-0.367723 74.9759 0.0589033 76.7784 1.38643 77.632L20.0027 89.5546C20.6562 89.9745 21.4443 90.1036 22.1902 89.9131C22.936 89.7225 23.5771 89.2282 23.9694 88.5412C24.7141 87.2446 25.6735 85.5605 26.7189 83.7572C34.0938 71.0895 41.5117 72.6394 54.8868 79.2862L73.3456 88.4219C74.0447 88.7682 74.8487 88.8052 75.5744 88.5244C76.3001 88.2437 76.8857 87.6691 77.1977 86.9316L86.0619 66.0671C86.6882 64.5769 86.051 62.8393 84.6299 62.1624C80.7348 60.2548 72.9876 56.4545 66.0136 52.9522C40.9246 40.2695 19.6018 41.0892 3.29102 68.7049Z" fill="url(#paint0_linear_1330_9990)" style=""/>
<path fill-rule="evenodd" clip-rule="evenodd" d="M86.7661 21.3581C87.6969 19.7784 88.7423 17.9453 89.6302 16.4848C90.4249 15.0871 89.9983 13.2847 88.6707 12.4311L70.0544 0.508474C69.3956 0.0466847 68.5821 -0.109635 67.8083 0.0768611C67.0345 0.263358 66.3699 0.775919 65.9732 1.49209C65.2285 2.78867 64.2691 4.47274 63.2237 6.27603C55.8488 18.9438 48.4309 17.3939 35.0558 10.747L16.6543 1.65602C15.9552 1.30973 15.1512 1.27275 14.4254 1.55352C13.6997 1.83429 13.1141 2.40888 12.8022 3.14635L3.93795 24.0109C3.31168 25.5011 3.94892 27.2386 5.36997 27.9156C9.26507 29.8232 17.0123 33.6235 23.9863 37.1258C49.1326 49.7935 70.4554 48.944 86.7661 21.3581Z" fill="url(#paint1_linear_1330_9990)" style=""/>
</g>
<defs>
<linearGradient id="paint0_linear_1330_9990" x1="85.5607" y1="95.7096" x2="63.2769" y2="46.5874" gradientUnits="userSpaceOnUse">
<stop offset="0.18" stop-color="#0052CC" style="stop-color:#0052CC;stop-color:color(display-p3 0.0000 0.3216 0.8000);stop-opacity:1;"/>
<stop offset="1" stop-color="#2684FF" style="stop-color:#2684FF;stop-color:color(display-p3 0.1490 0.5176 1.0000);stop-opacity:1;"/>
</linearGradient>
<linearGradient id="paint1_linear_1330_9990" x1="4.49644" y1="-5.66147" x2="26.8152" y2="43.4833" gradientUnits="userSpaceOnUse">
<stop offset="0.18" stop-color="#0052CC" style="stop-color:#0052CC;stop-color:color(display-p3 0.0000 0.3216 0.8000);stop-opacity:1;"/>
<stop offset="1" stop-color="#2684FF" style="stop-color:#2684FF;stop-color:color(display-p3 0.1490 0.5176 1.0000);stop-opacity:1;"/>
</linearGradient>
<clipPath id="clip0_1330_9990">
<rect width="90" height="90" fill="white" style="fill:white;fill-opacity:1;" transform="translate(0.0273438)"/>
</clipPath>
</defs>
</svg>
