<svg width="90" height="90" viewBox="0 0 90 90" fill="none" xmlns="http://www.w3.org/2000/svg">
<g clip-path="url(#clip0_1330_10036)">
<path d="M44.9992 0.578125C20.4971 0.578125 0.576172 20.4991 0.576172 45.0012C0.576172 69.5033 20.4971 89.4243 44.9992 89.4243C69.5013 89.4243 89.4223 69.5033 89.4223 45.0012C89.4223 20.4991 69.5013 0.578125 44.9992 0.578125Z" fill="#E1DCE5" style="fill:#E1DCE5;fill:color(display-p3 0.8824 0.8627 0.8980);fill-opacity:1;"/>
<path d="M59.3413 44.815C53.2428 44.815 48.2998 49.8287 48.2998 56.0138C48.2998 62.1992 53.2428 67.2133 59.3413 67.2133C65.4391 67.2133 70.3825 62.1992 70.3825 56.0138C70.3825 49.8287 65.4391 44.815 59.3413 44.815ZM30.6547 44.8158C24.5568 44.8158 19.6133 49.8287 19.6133 56.0144C19.6133 62.1992 24.5568 67.2133 30.6547 67.2133C36.7528 67.2133 41.6966 62.1992 41.6966 56.0144C41.6966 49.8287 36.7528 44.8158 30.6547 44.8158ZM56.039 30.816C56.039 37.001 51.096 42.016 44.9982 42.016C38.8998 42.016 33.9566 37.001 33.9566 30.816C33.9566 24.6313 38.8998 19.6172 44.9982 19.6172C51.096 19.6172 56.039 24.6313 56.039 30.816Z" fill="white" style="fill:white;fill-opacity:1;"/>
</g>
<defs>
<clipPath id="clip0_1330_10036">
<rect width="90" height="90" fill="white" style="fill:white;fill-opacity:1;"/>
</clipPath>
</defs>
</svg>
