<svg width="90" height="90" viewBox="0 0 90 90" fill="none" xmlns="http://www.w3.org/2000/svg">
<g clip-path="url(#clip0_1330_10079)">
<path fill-rule="evenodd" clip-rule="evenodd" d="M3.26368 68.7049C2.33286 70.2847 1.28749 72.1178 0.399632 73.5783C-0.395066 74.9759 0.0315595 76.7784 1.35909 77.632L19.9754 89.5546C20.6288 89.9745 21.417 90.1036 22.1628 89.9131C22.9087 89.7225 23.5497 89.2282 23.9421 88.5412C24.6867 87.2446 25.6462 85.5605 26.6916 83.7572C34.0665 71.0895 41.4844 72.6394 54.8594 79.2862L73.3182 88.4219C74.0173 88.7682 74.8214 88.8052 75.5471 88.5244C76.2728 88.2437 76.8584 87.6691 77.1704 86.9316L86.0346 66.0671C86.6608 64.5769 86.0236 62.8393 84.6026 62.1624C80.7075 60.2548 72.9602 56.4545 65.9863 52.9522C40.8972 40.2695 19.5744 41.0892 3.26368 68.7049Z" fill="#E1DCE5" style="fill:#E1DCE5;fill:color(display-p3 0.8824 0.8627 0.8980);fill-opacity:1;"/>
<path fill-rule="evenodd" clip-rule="evenodd" d="M86.7388 21.3581C87.6696 19.7784 88.715 17.9453 89.6028 16.4848C90.3975 15.0871 89.9709 13.2847 88.6434 12.4311L70.0271 0.508474C69.3683 0.0466847 68.5548 -0.109635 67.781 0.0768611C67.0072 0.263358 66.3425 0.775919 65.9458 1.49209C65.2012 2.78867 64.2417 4.47274 63.1963 6.27603C55.8214 18.9438 48.4035 17.3939 35.0285 10.747L16.627 1.65602C15.9279 1.30973 15.1238 1.27275 14.3981 1.55352C13.6724 1.83429 13.0868 2.40888 12.7748 3.14635L3.91061 24.0109C3.28433 25.5011 3.92158 27.2386 5.34263 27.9156C9.23773 29.8232 16.985 33.6235 23.9589 37.1258C49.1052 49.7935 70.4281 48.944 86.7388 21.3581Z" fill="#E1DCE5" style="fill:#E1DCE5;fill:color(display-p3 0.8824 0.8627 0.8980);fill-opacity:1;"/>
</g>
<defs>
<clipPath id="clip0_1330_10079">
<rect width="90" height="90" fill="white" style="fill:white;fill-opacity:1;"/>
</clipPath>
</defs>
</svg>
