<svg width="91" height="90" viewBox="0 0 91 90" fill="none" xmlns="http://www.w3.org/2000/svg">
<g clip-path="url(#clip0_1330_10131)">
<path d="M54.1836 39.1028C54.1836 37.6998 55.3209 36.5625 56.7239 36.5625H88.2058C89.6088 36.5625 90.7461 37.6998 90.7461 39.1028V57.6563C90.7461 67.7527 82.5613 75.9375 72.4648 75.9375V75.9375C62.3684 75.9375 54.1836 67.7527 54.1836 57.6563V39.1028Z" fill="url(#paint0_linear_1330_10131)" style=""/>
<path d="M26.0586 34.3851C26.0586 32.481 27.6021 30.9375 29.5062 30.9375H67.611C69.5151 30.9375 71.0586 32.481 71.0586 34.3851V61.875C71.0586 74.3014 60.985 84.375 48.5586 84.375V84.375C36.1322 84.375 26.0586 74.3014 26.0586 61.875V34.3851Z" fill="url(#paint1_linear_1330_10131)" style=""/>
<circle cx="76.6836" cy="22.5" r="8.4375" fill="#34439E" style="fill:#34439E;fill:color(display-p3 0.2039 0.2627 0.6196);fill-opacity:1;"/>
<circle cx="76.6836" cy="22.5" r="8.4375" fill="url(#paint2_linear_1330_10131)" style=""/>
<circle cx="51.3711" cy="16.875" r="11.25" fill="url(#paint3_linear_1330_10131)" style=""/>
<mask id="mask0_1330_10131" style="mask-type:alpha" maskUnits="userSpaceOnUse" x="26" y="0" width="46" height="85">
<path d="M48.5586 28.125C56.3252 28.125 62.6211 21.8291 62.6211 14.0625C62.6211 6.29585 56.3252 0 48.5586 0C40.7919 0 34.4961 6.29585 34.4961 14.0625C34.4961 21.8291 40.7919 28.125 48.5586 28.125Z" fill="url(#paint4_linear_1330_10131)" style=""/>
<path d="M29.5062 30.9375C27.6022 30.9375 26.0586 32.4811 26.0586 34.3851V61.875C26.0586 74.3016 36.132 84.375 48.5586 84.375C60.9852 84.375 71.0586 74.3016 71.0586 61.875V34.3851C71.0586 32.4811 69.515 30.9375 67.6109 30.9375H29.5062Z" fill="url(#paint5_linear_1330_10131)" style=""/>
</mask>
<g mask="url(#mask0_1330_10131)">
<path d="M20.4336 33.75C20.4336 29.0901 24.2112 25.3125 28.8711 25.3125H48.5586C53.2185 25.3125 56.9961 29.0901 56.9961 33.75V67.5C56.9961 72.1599 53.2185 75.9375 48.5586 75.9375H20.4336V33.75Z" fill="black" fill-opacity="0.3" style="fill:black;fill-opacity:0.3;"/>
</g>
<rect x="0.746094" y="19.6875" width="50.625" height="50.625" rx="5.625" fill="url(#paint6_linear_1330_10131)" style=""/>
<path d="M37.3086 30.9375H14.8086V36.0977H23.2319V59.0625H28.8853V36.0977H37.3086V30.9375Z" fill="white" style="fill:white;fill-opacity:1;"/>
</g>
<defs>
<linearGradient id="paint0_linear_1330_10131" x1="54.1836" y1="38.6349" x2="91.1935" y2="62.8186" gradientUnits="userSpaceOnUse">
<stop stop-color="#364088" style="stop-color:#364088;stop-color:color(display-p3 0.2118 0.2510 0.5333);stop-opacity:1;"/>
<stop offset="1" stop-color="#6E7EE1" style="stop-color:#6E7EE1;stop-color:color(display-p3 0.4314 0.4941 0.8824);stop-opacity:1;"/>
</linearGradient>
<linearGradient id="paint1_linear_1330_10131" x1="26.0586" y1="54.5733" x2="71.0586" y2="54.5733" gradientUnits="userSpaceOnUse">
<stop stop-color="#515FC4" style="stop-color:#515FC4;stop-color:color(display-p3 0.3176 0.3725 0.7686);stop-opacity:1;"/>
<stop offset="1" stop-color="#7084EA" style="stop-color:#7084EA;stop-color:color(display-p3 0.4392 0.5176 0.9176);stop-opacity:1;"/>
</linearGradient>
<linearGradient id="paint2_linear_1330_10131" x1="68.2461" y1="14.9507" x2="84.5483" y2="26.4226" gradientUnits="userSpaceOnUse">
<stop stop-color="#364088" style="stop-color:#364088;stop-color:color(display-p3 0.2118 0.2510 0.5333);stop-opacity:1;"/>
<stop offset="1" stop-color="#6E7EE1" style="stop-color:#6E7EE1;stop-color:color(display-p3 0.4314 0.4941 0.8824);stop-opacity:1;"/>
</linearGradient>
<linearGradient id="paint3_linear_1330_10131" x1="43.3354" y1="8.83929" x2="57.7997" y2="25.7143" gradientUnits="userSpaceOnUse">
<stop stop-color="#4858AE" style="stop-color:#4858AE;stop-color:color(display-p3 0.2824 0.3451 0.6824);stop-opacity:1;"/>
<stop offset="1" stop-color="#4E60CE" style="stop-color:#4E60CE;stop-color:color(display-p3 0.3059 0.3765 0.8078);stop-opacity:1;"/>
</linearGradient>
<linearGradient id="paint4_linear_1330_10131" x1="38.514" y1="4.01786" x2="56.5943" y2="25.1116" gradientUnits="userSpaceOnUse">
<stop stop-color="#4858AE" style="stop-color:#4858AE;stop-color:color(display-p3 0.2824 0.3451 0.6824);stop-opacity:1;"/>
<stop offset="1" stop-color="#4E60CE" style="stop-color:#4E60CE;stop-color:color(display-p3 0.3059 0.3765 0.8078);stop-opacity:1;"/>
</linearGradient>
<linearGradient id="paint5_linear_1330_10131" x1="38.514" y1="4.01786" x2="56.5943" y2="25.1116" gradientUnits="userSpaceOnUse">
<stop stop-color="#4858AE" style="stop-color:#4858AE;stop-color:color(display-p3 0.2824 0.3451 0.6824);stop-opacity:1;"/>
<stop offset="1" stop-color="#4E60CE" style="stop-color:#4E60CE;stop-color:color(display-p3 0.3059 0.3765 0.8078);stop-opacity:1;"/>
</linearGradient>
<linearGradient id="paint6_linear_1330_10131" x1="0.746094" y1="45" x2="51.3711" y2="45" gradientUnits="userSpaceOnUse">
<stop stop-color="#2A3887" style="stop-color:#2A3887;stop-color:color(display-p3 0.1647 0.2196 0.5294);stop-opacity:1;"/>
<stop offset="1" stop-color="#4C56B9" style="stop-color:#4C56B9;stop-color:color(display-p3 0.2980 0.3373 0.7255);stop-opacity:1;"/>
</linearGradient>
<clipPath id="clip0_1330_10131">
<rect width="90" height="90" fill="white" style="fill:white;fill-opacity:1;" transform="translate(0.746094)"/>
</clipPath>
</defs>
</svg>
