<svg width="90" height="90" viewBox="0 0 90 90" fill="none" xmlns="http://www.w3.org/2000/svg">
<g clip-path="url(#clip0_1330_10066)">
<path d="M19.5 0H70.5C81.1875 0 90 8.8125 90 19.5V70.5C90 81.1875 81.1875 90 70.5 90H19.5C8.8125 90 0 81.1875 0 70.5V19.5C0 8.8125 8.8125 0 19.5 0Z" fill="#E1DCE5" style="fill:#E1DCE5;fill:color(display-p3 0.8824 0.8627 0.8980);fill-opacity:1;"/>
<path fill-rule="evenodd" clip-rule="evenodd" d="M62.4414 11.25H52.5039L60.7539 25.6875L42.7539 11.25H32.8164L41.8164 28.875L23.0664 11.25H13.1289L23.0664 33.75L13.1289 78.75H23.0664L42.0039 30.5625L32.8164 78.75H42.7539L60.9414 27.375L52.6914 78.75H62.6289L80.6289 22.5L62.4414 11.25Z" fill="white" style="fill:white;fill-opacity:1;"/>
</g>
<defs>
<clipPath id="clip0_1330_10066">
<rect width="90" height="90" fill="white" style="fill:white;fill-opacity:1;"/>
</clipPath>
</defs>
</svg>
