<svg width="90" height="90" viewBox="0 0 90 90" fill="none" xmlns="http://www.w3.org/2000/svg">
<path d="M53.4375 39.1028C53.4375 37.6998 54.5748 36.5625 55.9778 36.5625H87.4597C88.8627 36.5625 90 37.6998 90 39.1028V57.6563C90 67.7527 81.8152 75.9375 71.7188 75.9375V75.9375C61.6223 75.9375 53.4375 67.7527 53.4375 57.6563V39.1028Z" fill="#EAE6ED" style="fill:#EAE6ED;fill:color(display-p3 0.9176 0.9020 0.9294);fill-opacity:1;"/>
<path d="M25.3125 34.3851C25.3125 32.481 26.856 30.9375 28.7601 30.9375H66.8649C68.769 30.9375 70.3125 32.481 70.3125 34.3851V61.875C70.3125 74.3014 60.2389 84.375 47.8125 84.375V84.375C35.3861 84.375 25.3125 74.3014 25.3125 61.875V34.3851Z" fill="#EAE6ED" style="fill:#EAE6ED;fill:color(display-p3 0.9176 0.9020 0.9294);fill-opacity:1;"/>
<circle cx="75.9375" cy="22.5" r="8.4375" fill="#EAE6ED" style="fill:#EAE6ED;fill:color(display-p3 0.9176 0.9020 0.9294);fill-opacity:1;"/>
<circle cx="50.625" cy="16.875" r="11.25" fill="#EAE6ED" style="fill:#EAE6ED;fill:color(display-p3 0.9176 0.9020 0.9294);fill-opacity:1;"/>
<rect y="19.6875" width="50.625" height="50.625" rx="5.625" fill="#E1DCE5" style="fill:#E1DCE5;fill:color(display-p3 0.8824 0.8627 0.8980);fill-opacity:1;"/>
<path d="M36.5625 30.9375H14.0625V36.0977H22.4858V59.0625H28.1392V36.0977H36.5625V30.9375Z" fill="white" style="fill:white;fill-opacity:1;"/>
</svg>
