<svg width="86" height="90" viewBox="0 0 86 90" fill="none" xmlns="http://www.w3.org/2000/svg">
<g clip-path="url(#clip0_1330_10051)">
<path d="M66.5736 24.2143C71.5939 24.2143 76.3959 26.1429 79.8883 29.1429C82.2893 31.0714 85.7817 29.5714 85.7817 26.3571V7.07143C85.7817 3.21429 82.7259 0 78.5787 0L7.20304 0C3.27411 0 0 3.21429 0 7.07143L0 83.1429C0 86.7857 3.27411 90 7.20304 90H78.7969C82.7259 90 86 86.7857 86 82.9286V63.6429C86 60.6429 82.5076 58.9286 80.1066 60.8571C76.3959 64.0714 71.8122 65.7857 66.7919 65.7857C55.2233 65.7857 45.8376 56.3571 45.8376 45C45.8376 33.6429 55.2233 24.2143 66.5736 24.2143Z" fill="#E1DCE5" style="fill:#E1DCE5;fill:color(display-p3 0.8824 0.8627 0.8980);fill-opacity:1;"/>
</g>
<defs>
<clipPath id="clip0_1330_10051">
<rect width="86" height="90" fill="white" style="fill:white;fill-opacity:1;"/>
</clipPath>
</defs>
</svg>
