<svg width="95" height="101" viewBox="0 0 95 101" fill="none" xmlns="http://www.w3.org/2000/svg">
<g clip-path="url(#clip0_1330_10040)">
<path d="M4.42578 25.25V75.7494L47.4913 100.999V88.4752L15.1416 69.4875V31.5119L4.42578 25.25Z" fill="#E1DCE5" style="fill:#E1DCE5;fill:color(display-p3 0.8824 0.8627 0.8980);fill-opacity:1;"/>
<path d="M79.832 31.5119V82.0113L90.5479 75.7494V25.25L79.832 31.5119Z" fill="#C8C1CD" style="fill:#C8C1CD;fill:color(display-p3 0.7843 0.7569 0.8039);fill-opacity:1;"/>
<path d="M36.7734 6.26193L79.8389 31.5116L90.5547 25.2497L47.4893 0L36.7734 6.26193Z" fill="#E1DCE5" style="fill:#E1DCE5;fill:color(display-p3 0.8824 0.8627 0.8980);fill-opacity:1;"/>
<path d="M4.42578 25.2463L15.1416 31.5082L25.8574 25.2463L15.1416 18.9844L4.42578 25.2463Z" fill="#E1DCE5" style="fill:#E1DCE5;fill:color(display-p3 0.8824 0.8627 0.8980);fill-opacity:1;"/>
<path d="M15.1406 31.5119V69.2855L25.8564 63.0236V25.25L15.1406 31.5119Z" fill="#C8C1CD" style="fill:#C8C1CD;fill:color(display-p3 0.7843 0.7569 0.8039);fill-opacity:1;"/>
<path d="M47.5 88.4796V101.003L58.2158 94.7415V82.0156L47.5 88.4796Z" fill="#C8C1CD" style="fill:#C8C1CD;fill:color(display-p3 0.7843 0.7569 0.8039);fill-opacity:1;"/>
<path d="M15.1367 69.4885L47.4864 88.4763L58.2022 82.2143L25.8525 63.2266L15.1367 69.4885Z" fill="#E1DCE5" style="fill:#E1DCE5;fill:color(display-p3 0.8824 0.8627 0.8980);fill-opacity:1;"/>
<path d="M36.7734 6.26562V18.9915L69.1231 37.9792V75.9548L79.8389 82.2167V31.7173L36.7734 6.26562Z" fill="#E1DCE5" style="fill:#E1DCE5;fill:color(display-p3 0.8824 0.8627 0.8980);fill-opacity:1;"/>
</g>
<defs>
<clipPath id="clip0_1330_10040">
<rect width="95" height="101" fill="white" style="fill:white;fill-opacity:1;"/>
</clipPath>
</defs>
</svg>
