<svg fill="none" height="60" viewBox="0 0 90 60" width="90" xmlns="http://www.w3.org/2000/svg"><g fill="#e1dce5"><path d="m10.9588 56.8466c-1.94744.0044-3.8611-.5174-5.54549-1.512-1.68439-.9945-3.07913-2.4262-4.04174-4.1488-.947872-1.7105-1.4206015-3.6511-1.36754859-5.614.05305289-1.9629.62988959-3.8742 1.66871859-5.529l19.74336-31.54766c1.0105-1.6955 2.4451-3.0877 4.1574-4.0344s3.6409-1.41396 5.5887-1.35406c1.9464.04746 3.8454.62026 5.5028 1.65979 1.6573 1.03952 3.0135 2.50845 3.9297 4.25645 1.8405 3.54128 1.6104 7.80178-.594 11.12598l-19.7307 31.5476c-1.0006 1.5865-2.3786 2.8904-4.0063 3.7906-1.6276.9003-3.4523 1.3679-5.3049 1.3595z"/><path d="m44.8236 56.8531c-3.9821 0-7.6463-2.1665-9.5705-5.6481-.9457-1.7058-1.4174-3.6414-1.3643-5.5991.0531-1.9578.6288-3.864 1.6655-5.5141l19.7057-31.47531c.9956-1.71934 2.4252-3.13635 4.1404-4.10404 1.7152-.9677 3.6536-1.45085 5.6141-1.39935 4.0156.08938 7.6547 2.37501 9.4952 5.9503 1.828 3.5753 1.5603 7.8614-.7111 11.177l-19.7015 31.4753c-.9974 1.5798-2.3699 2.8785-3.9906 3.7763-1.6207.8979-3.4375 1.366-5.2829 1.3611z"/><path d="m77.934 57.1108c5.6137 0 10.1645-4.5334 10.1645-10.1257s-4.5508-10.1257-10.1645-10.1257-10.1645 4.5334-10.1645 10.1257 4.5508 10.1257 10.1645 10.1257z"/></g></svg>