<svg width="90" height="90" viewBox="0 0 90 90" fill="none" xmlns="http://www.w3.org/2000/svg">
<path d="M12.4941 67.6172V83.958C12.4941 87.2893 15.2231 89.9894 18.584 89.9894H34.817V67.6172H12.4941Z" fill="#E1DCE5" style="fill:#E1DCE5;fill:color(display-p3 0.8824 0.8627 0.8980);fill-opacity:1;"/>
<path d="M55.6445 89.9944H71.8625C75.2235 89.9944 77.9524 87.2943 77.9524 83.963V67.6172H55.6445V89.9944Z" fill="#E1DCE5" style="fill:#E1DCE5;fill:color(display-p3 0.8824 0.8627 0.8980);fill-opacity:1;"/>
<path d="M55.6592 67.6172H34.8262V89.9944H55.6592V67.6172Z" fill="#E1DCE5" style="fill:#E1DCE5;fill:color(display-p3 0.8824 0.8627 0.8980);fill-opacity:1;"/>
<path d="M18.584 0C15.2231 0 12.4941 2.7001 12.4941 6.03138L12.4941 67.6276H34.817V22.5425H55.6501V0L18.584 0Z" fill="#E1DCE5" style="fill:#E1DCE5;fill:color(display-p3 0.8824 0.8627 0.8980);fill-opacity:1;"/>
<path d="M77.9524 22.5312H55.6445V67.6163H77.9524V22.5312Z" fill="#E1DCE5" style="fill:#E1DCE5;fill:color(display-p3 0.8824 0.8627 0.8980);fill-opacity:1;"/>
<path d="M55.6445 22.5425H77.9474L55.6445 0V22.5425Z" fill="#C8C1CD" style="fill:#C8C1CD;fill:color(display-p3 0.7843 0.7569 0.8039);fill-opacity:1;"/>
</svg>
