<svg width="90" height="90" viewBox="0 0 90 90" fill="none" xmlns="http://www.w3.org/2000/svg">
<g clip-path="url(#clip0_1330_10124)">
<rect width="90" height="90" rx="11.25" fill="white" style="fill:white;fill-opacity:1;"/>
<path fill-rule="evenodd" clip-rule="evenodd" d="M78.8 0L11.2571 0C5.03999 0 0 5.0368 0 11.25L0 78.75C0 84.9632 5.03999 90 11.2571 90H78.8C84.9948 89.9686 90.0001 84.941 90 78.75V11.25C90.0001 5.05903 84.9948 0.0314262 78.8 0ZM18.75 11.25L33.75 11.25C37.8921 11.25 41.25 14.6079 41.25 18.75V71.25C41.25 75.3921 37.8921 78.75 33.75 78.75H18.75C14.6079 78.75 11.25 75.3921 11.25 71.25L11.25 18.75C11.25 14.6079 14.6079 11.25 18.75 11.25ZM71.25 11.25H56.25C52.1079 11.25 48.75 14.6079 48.75 18.75V45C48.75 49.1421 52.1079 52.5 56.25 52.5H71.25C75.3921 52.5 78.75 49.1421 78.75 45V18.75C78.75 14.6079 75.3921 11.25 71.25 11.25Z" fill="#E1DCE5" style="fill:#E1DCE5;fill:color(display-p3 0.8824 0.8627 0.8980);fill-opacity:1;"/>
</g>
<defs>
<clipPath id="clip0_1330_10124">
<rect width="90" height="90" rx="11.25" fill="white" style="fill:white;fill-opacity:1;"/>
</clipPath>
</defs>
</svg>
