<svg width="91" height="90" viewBox="0 0 91 90" fill="none" xmlns="http://www.w3.org/2000/svg">
<path d="M45.5344 0.578125C21.0323 0.578125 1.11133 20.4991 1.11133 45.0012C1.11133 69.5033 21.0323 89.4243 45.5344 89.4243C70.0365 89.4243 89.9575 69.5033 89.9575 45.0012C89.9575 20.4991 70.0365 0.578125 45.5344 0.578125Z" fill="url(#paint0_radial_1330_9956)" style=""/>
<path d="M59.8765 44.815C53.7779 44.815 48.8349 49.8287 48.8349 56.0138C48.8349 62.1992 53.7779 67.2133 59.8765 67.2133C65.9743 67.2133 70.9177 62.1992 70.9177 56.0138C70.9177 49.8287 65.9743 44.815 59.8765 44.815ZM31.1898 44.8158C25.092 44.8158 20.1484 49.8287 20.1484 56.0144C20.1484 62.1992 25.092 67.2133 31.1898 67.2133C37.288 67.2133 42.2318 62.1992 42.2318 56.0144C42.2318 49.8287 37.288 44.8158 31.1898 44.8158ZM56.5741 30.816C56.5741 37.001 51.6311 42.016 45.5333 42.016C39.435 42.016 34.4918 37.001 34.4918 30.816C34.4918 24.6313 39.435 19.6172 45.5333 19.6172C51.6311 19.6172 56.5741 24.6313 56.5741 30.816Z" fill="white" style="fill:white;fill-opacity:1;"/>
<defs>
<radialGradient id="paint0_radial_1330_9956" cx="0" cy="0" r="1" gradientUnits="userSpaceOnUse" gradientTransform="translate(45.5344 49.1345) scale(58.8724)">
<stop stop-color="#FFB900" style="stop-color:#FFB900;stop-color:color(display-p3 1.0000 0.7255 0.0000);stop-opacity:1;"/>
<stop offset="0.6" stop-color="#F95D8F" style="stop-color:#F95D8F;stop-color:color(display-p3 0.9765 0.3647 0.5608);stop-opacity:1;"/>
<stop offset="0.9991" stop-color="#F95353" style="stop-color:#F95353;stop-color:color(display-p3 0.9765 0.3255 0.3255);stop-opacity:1;"/>
</radialGradient>
</defs>
</svg>
