<svg width="96" height="97" viewBox="0 0 96 97" fill="none" xmlns="http://www.w3.org/2000/svg">
<g clip-path="url(#clip0_622_40541)">
<path d="M0 28.3876C0 18.6249 0 13.7436 1.93006 10.028C3.55649 6.89701 6.10941 4.34409 9.24044 2.71765C12.956 0.787598 17.8373 0.787598 27.6 0.787598H68.4C78.1627 0.787598 83.044 0.787598 86.7596 2.71765C89.8906 4.34409 92.4435 6.89701 94.0699 10.028C96 13.7436 96 18.6249 96 28.3876V69.1876C96 78.9503 96 83.8316 94.0699 87.5472C92.4435 90.6782 89.8906 93.2311 86.7596 94.8575C83.044 96.7876 78.1627 96.7876 68.4 96.7876H27.6C17.8373 96.7876 12.956 96.7876 9.24044 94.8575C6.10941 93.2311 3.55649 90.6782 1.93006 87.5472C0 83.8316 0 78.9503 0 69.1876V28.3876Z" fill="#E1DCE5" style="fill:#E1DCE5;fill:color(display-p3 0.8824 0.8627 0.8980);fill-opacity:1;"/>
<path d="M43.2713 76.8797L19.9082 53.5166C21.9038 65.4585 31.3294 74.8841 43.2713 76.8797Z" fill="white" style="fill:white;fill-opacity:1;"/>
<path d="M19.5605 47.2011L49.5865 77.227C51.3676 77.129 53.1053 76.8678 54.7846 76.4575L20.33 42.0029C19.9197 43.6823 19.6585 45.4199 19.5605 47.2011Z" fill="white" style="fill:white;fill-opacity:1;"/>
<path d="M21.832 37.5322L59.2603 74.9604C60.6216 74.3741 61.9281 73.6849 63.1699 72.9024L23.89 33.6226C23.1075 34.8643 22.4183 36.1708 21.832 37.5322Z" fill="white" style="fill:white;fill-opacity:1;"/>
<path d="M26.417 30.1947C31.6402 24.1385 39.3697 20.3052 47.9947 20.3052C63.7256 20.3052 76.4782 33.0577 76.4782 48.7887C76.4782 57.4137 72.6448 65.1432 66.5887 70.3664L26.417 30.1947Z" fill="white" style="fill:white;fill-opacity:1;"/>
</g>
<defs>
<clipPath id="clip0_622_40541">
<rect width="96" height="96" fill="white" style="fill:white;fill-opacity:1;" transform="translate(0 0.787598)"/>
</clipPath>
</defs>
</svg>
