<svg width="96" height="101" viewBox="0 0 96 101" fill="none" xmlns="http://www.w3.org/2000/svg">
<g clip-path="url(#clip0_1330_9974)">
<path d="M4.69141 25.25L4.69141 75.7494L47.7569 100.999V88.4752L15.4072 69.4875L15.4072 31.5119L4.69141 25.25Z" fill="#F96B13" style="fill:#F96B13;fill:color(display-p3 0.9765 0.4196 0.0745);fill-opacity:1;"/>
<path d="M80.0977 31.5119V82.0113L90.8135 75.7494V25.25L80.0977 31.5119Z" fill="#CC4E00" style="fill:#CC4E00;fill:color(display-p3 0.8000 0.3059 0.0000);fill-opacity:1;"/>
<path d="M37.0391 6.26193L80.1045 31.5116L90.8204 25.2497L47.7549 0L37.0391 6.26193Z" fill="#FFCA73" style="fill:#FFCA73;fill:color(display-p3 1.0000 0.7922 0.4510);fill-opacity:1;"/>
<path d="M4.69141 25.2463L15.4072 31.5082L26.1231 25.2463L15.4072 18.9844L4.69141 25.2463Z" fill="#FFCA73" style="fill:#FFCA73;fill:color(display-p3 1.0000 0.7922 0.4510);fill-opacity:1;"/>
<path d="M15.4062 31.5119L15.4063 69.2855L26.1221 63.0236V25.25L15.4062 31.5119Z" fill="#CC4E00" style="fill:#CC4E00;fill:color(display-p3 0.8000 0.3059 0.0000);fill-opacity:1;"/>
<path d="M47.7656 88.4796V101.003L58.4815 94.7415V82.0156L47.7656 88.4796Z" fill="#CC4E00" style="fill:#CC4E00;fill:color(display-p3 0.8000 0.3059 0.0000);fill-opacity:1;"/>
<path d="M15.4023 69.4885L47.752 88.4763L58.4678 82.2143L26.1182 63.2266L15.4023 69.4885Z" fill="#FFCA73" style="fill:#FFCA73;fill:color(display-p3 1.0000 0.7922 0.4510);fill-opacity:1;"/>
<path d="M37.0391 6.25781V18.9837L69.3887 37.9714V75.947L80.1045 82.2089V31.7095L37.0391 6.25781Z" fill="#F96B13" style="fill:#F96B13;fill:color(display-p3 0.9765 0.4196 0.0745);fill-opacity:1;"/>
</g>
<defs>
<clipPath id="clip0_1330_9974">
<rect width="95" height="101" fill="white" style="fill:white;fill-opacity:1;" transform="translate(0.265625)"/>
</clipPath>
</defs>
</svg>
